<svg width="97" height="32" viewBox="0 0 97 32" fill="none" xmlns="http://www.w3.org/2000/svg">
<path d="M3.91797 18.126L11.9531 22.3594L11.2891 26.1777L0.929688 20.002L1.39453 17.4951L3.91797 18.126ZM13.2646 14.8223L4.15039 18.9395L1.0127 19.6035L1.51074 16.7646L13.9951 10.6221L13.2646 14.8223ZM90.6184 4.82812L77.8518 31.0752H75.3118L88.1116 4.82812H90.6184ZM93.7342 18.5078L84.9852 13.8262L85.5164 10.8213L96.0584 17.0967L95.7264 18.9229L93.7342 18.5078ZM83.491 22.4756L93.5516 17.8604L95.992 17.4785L95.6268 19.5205L82.8934 25.8291L83.491 22.4756Z" fill="#404451"/>
<path d="M22.6022 29.48C19.3222 29.48 16.8955 28.5467 15.3222 26.68C13.7755 24.7867 13.0022 22.1733 13.0022 18.84C13.0022 16.12 13.3089 13.64 13.9222 11.4C14.5355 9.16 15.4022 7.24 16.5222 5.64C17.6422 4.04 18.9889 2.8 20.5622 1.92C22.1622 1.04 23.9489 0.599998 25.9222 0.599998C27.4689 0.599998 28.8022 0.799998 29.9222 1.2C31.0689 1.6 32.0155 2.16 32.7622 2.88C33.5089 3.6 34.0689 4.46667 34.4422 5.48C34.8422 6.49333 35.0822 7.6 35.1622 8.8L29.4422 9.96C29.3889 9.29333 29.2955 8.68 29.1622 8.12C29.0555 7.56 28.8555 7.08 28.5622 6.68C28.2955 6.28 27.9222 5.97333 27.4422 5.76C26.9889 5.52 26.4022 5.4 25.6822 5.4C24.0289 5.4 22.7622 6.05333 21.8822 7.36C21.0022 8.66667 20.3755 10.44 20.0022 12.68L19.2822 17.04C19.2022 17.52 19.1222 18 19.0422 18.48C18.9889 18.96 18.9622 19.52 18.9622 20.16C18.9622 21.5733 19.2689 22.68 19.8822 23.48C20.4955 24.28 21.5355 24.68 23.0022 24.68C23.6422 24.68 24.2289 24.56 24.7622 24.32C25.2955 24.0533 25.7755 23.7067 26.2022 23.28C26.6289 22.8533 27.0155 22.36 27.3622 21.8C27.7089 21.2133 28.0155 20.5867 28.2822 19.92L33.3622 21.44C32.2689 24.0533 30.8689 26.0533 29.1622 27.44C27.4822 28.8 25.2955 29.48 22.6022 29.48ZM50.6666 16.56L52.2666 8.68H51.9066L44.2666 23.04L41.4666 8.68H41.1066L40.1066 16.56L38.0266 29H32.9066L37.5866 1.08H44.3466L46.2666 10.56H46.6266L51.6666 1.08H58.3866L53.7066 29H48.5866L50.6666 16.56ZM65.6909 29.48C63.3709 29.48 61.2909 29.1067 59.4509 28.36C57.6376 27.6133 56.3043 26.56 55.4509 25.2L59.1709 21.44C59.9976 22.5067 61.0376 23.3067 62.2909 23.84C63.5443 24.3467 64.7976 24.6 66.0509 24.6C67.5709 24.6 68.7176 24.24 69.4909 23.52C70.2909 22.7733 70.6909 21.76 70.6909 20.48C70.6909 19.5467 70.4243 18.8667 69.8909 18.44C69.3843 17.9867 68.5709 17.6267 67.4509 17.36L64.6909 16.72C62.6643 16.2667 61.1843 15.4267 60.2509 14.2C59.3443 12.9467 58.8909 11.4533 58.8909 9.72C58.8909 8.33333 59.1309 7.08 59.6109 5.96C60.1176 4.84 60.8376 3.88 61.7709 3.08C62.7043 2.28 63.8376 1.66667 65.1709 1.24C66.5043 0.813332 67.9976 0.599998 69.6509 0.599998C71.6509 0.599998 73.4643 0.946665 75.0909 1.64C76.7176 2.33333 77.9309 3.29333 78.7309 4.52L74.8509 8.08C74.2376 7.22667 73.4643 6.57333 72.5309 6.12C71.6243 5.64 70.5709 5.4 69.3709 5.4C67.9043 5.4 66.8109 5.73333 66.0909 6.4C65.3709 7.06667 65.0109 7.96 65.0109 9.08C65.0109 9.88 65.2509 10.4933 65.7309 10.92C66.2376 11.3467 67.1176 11.72 68.3709 12.04L71.0109 12.72C74.9043 13.7067 76.8509 16.0667 76.8509 19.8C76.8509 21.24 76.5976 22.56 76.0909 23.76C75.6109 24.9333 74.8909 25.9467 73.9309 26.8C72.9709 27.6533 71.7976 28.32 70.4109 28.8C69.0243 29.2533 67.4509 29.48 65.6909 29.48Z" fill="#5653F4"/>
</svg>
