<svg width="231" height="33" viewBox="0 0 231 33" fill="none" xmlns="http://www.w3.org/2000/svg">
<path d="M3.60938 17.207L13.0625 22.1875L12.2812 26.6797L0.09375 19.4141L0.640625 16.4648L3.60938 17.207ZM14.6055 13.3203L3.88281 18.1641L0.191406 18.9453L0.777344 15.6055L15.4648 8.37891L14.6055 13.3203ZM30.6211 5.70312L19.8008 30H14.8398L28.5117 1.5625H31.6367L30.6211 5.70312ZM31.7734 30L29.3125 5.25391L29.6641 1.5625H32.6328L36.4805 30H31.7734ZM33.707 19.4336L32.9844 23.418H20.1133L20.8164 19.4336H33.707ZM44.625 1.5625L52.7109 1.58203C54.4036 1.63411 55.8099 2.01172 56.9297 2.71484C58.0625 3.40495 58.8893 4.36849 59.4102 5.60547C59.944 6.84245 60.1393 8.30078 59.9961 9.98047C59.8789 11.3607 59.5599 12.5846 59.0391 13.6523C58.5182 14.707 57.8086 15.625 56.9102 16.4062C56.0117 17.1745 54.9375 17.819 53.6875 18.3398L52.1836 19.082H44.8984L45.5625 15.0977L50.3086 15.1367C51.2852 15.1237 52.125 14.9023 52.8281 14.4727C53.5443 14.043 54.1172 13.457 54.5469 12.7148C54.9766 11.9727 55.2435 11.1393 55.3477 10.2148C55.4518 9.45964 55.4453 8.73698 55.3281 8.04688C55.224 7.34375 54.9505 6.76432 54.5078 6.30859C54.0781 5.85286 53.4206 5.60547 52.5352 5.56641L48.5898 5.54688L44.332 30H39.7031L44.625 1.5625ZM52.6719 30L49.625 17.2266L54.2539 17.207L57.6133 29.7266V30H52.6719ZM74.4688 1.5625L69.5273 30H64.9375L69.8789 1.5625H74.4688ZM81.5 1.5625L80.8164 5.54688H62.2031L62.9062 1.5625H81.5ZM87.3594 30.4102C86.0052 30.3841 84.8854 30.0911 84 29.5312C83.1276 28.9714 82.4505 28.2357 81.9688 27.3242C81.5 26.3997 81.194 25.3776 81.0508 24.2578C80.9076 23.125 80.901 21.9857 81.0312 20.8398L81.3438 18.3789C81.5 17.181 81.793 15.9896 82.2227 14.8047C82.6654 13.6068 83.2383 12.526 83.9414 11.5625C84.6576 10.5859 85.543 9.81771 86.5977 9.25781C87.6523 8.6849 88.8763 8.42448 90.2695 8.47656C91.5586 8.51562 92.6003 8.8151 93.3945 9.375C94.2018 9.9349 94.7878 10.6641 95.1523 11.5625C95.5299 12.4479 95.7578 13.4375 95.8359 14.5312C95.9141 15.625 95.8815 16.7122 95.7383 17.793L95.5039 19.6094H82.4375L82.8086 17.5781L93.6289 17.5586L93.7266 17.0117C93.8438 16.0612 93.8372 15.0911 93.707 14.1016C93.5768 13.112 93.2383 12.2786 92.6914 11.6016C92.1576 10.9245 91.3047 10.5534 90.1328 10.4883C89.013 10.4492 88.056 10.6576 87.2617 11.1133C86.4674 11.569 85.8164 12.1875 85.3086 12.9688C84.8138 13.75 84.4167 14.6224 84.1172 15.5859C83.8307 16.5365 83.6289 17.4674 83.5117 18.3789L83.1992 20.8398C83.1211 21.6732 83.1081 22.5326 83.1602 23.418C83.2122 24.2904 83.388 25.0977 83.6875 25.8398C83.987 26.569 84.4427 27.1615 85.0547 27.6172C85.6797 28.0729 86.5065 28.3203 87.5352 28.3594C88.5768 28.3854 89.5208 28.2031 90.3672 27.8125C91.2266 27.4089 92.0273 26.849 92.7695 26.1328L93.7852 27.5977C93.2383 28.2487 92.6263 28.7826 91.9492 29.1992C91.2721 29.6159 90.543 29.9219 89.7617 30.1172C88.9935 30.3255 88.1927 30.4232 87.3594 30.4102ZM104.996 28.3789C106.051 28.431 106.943 28.2422 107.672 27.8125C108.401 27.3828 108.987 26.7904 109.43 26.0352C109.885 25.2799 110.23 24.4271 110.465 23.4766L112.438 23.457C112.229 24.7591 111.793 25.9505 111.129 27.0312C110.465 28.099 109.605 28.9453 108.551 29.5703C107.496 30.1823 106.266 30.4688 104.859 30.4297C103.479 30.3906 102.366 30.0846 101.52 29.5117C100.673 28.9258 100.035 28.1576 99.6055 27.207C99.1888 26.2565 98.9349 25.2148 98.8438 24.082C98.7526 22.9362 98.7721 21.7904 98.9023 20.6445L99.2344 18.2422C99.4036 16.9792 99.6901 15.7617 100.094 14.5898C100.497 13.4049 101.051 12.3438 101.754 11.4062C102.457 10.4688 103.329 9.73307 104.371 9.19922C105.413 8.66536 106.65 8.42448 108.082 8.47656C109.527 8.51562 110.673 8.89323 111.52 9.60938C112.366 10.3125 112.965 11.237 113.316 12.3828C113.668 13.5156 113.805 14.7266 113.727 16.0156L111.656 15.9961C111.721 15.0977 111.656 14.2383 111.461 13.418C111.266 12.5977 110.888 11.9206 110.328 11.3867C109.781 10.8398 108.987 10.5469 107.945 10.5078C106.826 10.4557 105.875 10.651 105.094 11.0938C104.312 11.5234 103.668 12.1224 103.16 12.8906C102.665 13.6458 102.275 14.4922 101.988 15.4297C101.702 16.3542 101.5 17.2917 101.383 18.2422L101.07 20.6445C100.966 21.4779 100.914 22.3438 100.914 23.2422C100.927 24.1276 101.051 24.9544 101.285 25.7227C101.52 26.4909 101.93 27.1224 102.516 27.6172C103.115 28.099 103.941 28.3529 104.996 28.3789ZM123.141 0L117.945 30H115.777L120.992 0H123.141ZM119.527 18.125L118.766 17.6367C118.935 16.6081 119.221 15.5534 119.625 14.4727C120.042 13.3789 120.569 12.3763 121.207 11.4648C121.845 10.5404 122.626 9.80469 123.551 9.25781C124.475 8.69792 125.556 8.43099 126.793 8.45703C127.861 8.48307 128.72 8.73698 129.371 9.21875C130.022 9.70052 130.491 10.3255 130.777 11.0938C131.064 11.849 131.227 12.6758 131.266 13.5742C131.318 14.4727 131.298 15.3581 131.207 16.2305L128.902 30H126.773L129.078 16.1914C129.156 15.3711 129.163 14.5247 129.098 13.6523C129.046 12.7799 128.798 12.0443 128.355 11.4453C127.913 10.8464 127.164 10.5273 126.109 10.4883C125.159 10.4753 124.306 10.7096 123.551 11.1914C122.809 11.6732 122.164 12.3112 121.617 13.1055C121.083 13.8867 120.641 14.7201 120.289 15.6055C119.938 16.4909 119.684 17.3307 119.527 18.125ZM215.715 1.5625L200.695 32.4414H197.707L212.766 1.5625H215.715ZM227.98 17.6562L217.688 12.1484L218.312 8.61328L230.715 15.9961L230.324 18.1445L227.98 17.6562ZM215.93 22.3242L227.766 16.8945L230.637 16.4453L230.207 18.8477L215.227 26.2695L215.93 22.3242Z" fill="#E0DFFB"/>
<path d="M145.288 30.48C142.008 30.48 139.581 29.5467 138.008 27.68C136.461 25.7867 135.688 23.1733 135.688 19.84C135.688 17.12 135.994 14.64 136.608 12.4C137.221 10.16 138.088 8.24 139.208 6.64C140.328 5.04 141.674 3.8 143.248 2.92C144.848 2.04 146.634 1.6 148.608 1.6C150.154 1.6 151.488 1.8 152.608 2.2C153.754 2.6 154.701 3.16 155.448 3.88C156.194 4.6 156.754 5.46667 157.128 6.48C157.528 7.49333 157.768 8.6 157.848 9.8L152.128 10.96C152.074 10.2933 151.981 9.68 151.848 9.12C151.741 8.56 151.541 8.08 151.248 7.68C150.981 7.28 150.608 6.97333 150.128 6.76C149.674 6.52 149.088 6.4 148.368 6.4C146.714 6.4 145.448 7.05333 144.568 8.36C143.688 9.66667 143.061 11.44 142.688 13.68L141.968 18.04C141.888 18.52 141.808 19 141.728 19.48C141.674 19.96 141.648 20.52 141.648 21.16C141.648 22.5733 141.954 23.68 142.568 24.48C143.181 25.28 144.221 25.68 145.688 25.68C146.328 25.68 146.914 25.56 147.448 25.32C147.981 25.0533 148.461 24.7067 148.888 24.28C149.314 23.8533 149.701 23.36 150.048 22.8C150.394 22.2133 150.701 21.5867 150.968 20.92L156.048 22.44C154.954 25.0533 153.554 27.0533 151.848 28.44C150.168 29.8 147.981 30.48 145.288 30.48ZM173.352 17.56L174.952 9.68H174.592L166.952 24.04L164.152 9.68H163.792L162.792 17.56L160.712 30H155.592L160.272 2.08H167.032L168.952 11.56H169.312L174.352 2.08H181.072L176.392 30H171.272L173.352 17.56ZM188.376 30.48C186.056 30.48 183.976 30.1067 182.136 29.36C180.323 28.6133 178.99 27.56 178.136 26.2L181.856 22.44C182.683 23.5067 183.723 24.3067 184.976 24.84C186.23 25.3467 187.483 25.6 188.736 25.6C190.256 25.6 191.403 25.24 192.176 24.52C192.976 23.7733 193.376 22.76 193.376 21.48C193.376 20.5467 193.11 19.8667 192.576 19.44C192.07 18.9867 191.256 18.6267 190.136 18.36L187.376 17.72C185.35 17.2667 183.87 16.4267 182.936 15.2C182.03 13.9467 181.576 12.4533 181.576 10.72C181.576 9.33333 181.816 8.08 182.296 6.96C182.803 5.84 183.523 4.88 184.456 4.08C185.39 3.28 186.523 2.66667 187.856 2.24C189.19 1.81333 190.683 1.6 192.336 1.6C194.336 1.6 196.15 1.94667 197.776 2.64C199.403 3.33333 200.616 4.29333 201.416 5.52L197.536 9.08C196.923 8.22667 196.15 7.57333 195.216 7.12C194.31 6.64 193.256 6.4 192.056 6.4C190.59 6.4 189.496 6.73333 188.776 7.4C188.056 8.06667 187.696 8.96 187.696 10.08C187.696 10.88 187.936 11.4933 188.416 11.92C188.923 12.3467 189.803 12.72 191.056 13.04L193.696 13.72C197.59 14.7067 199.536 17.0667 199.536 20.8C199.536 22.24 199.283 23.56 198.776 24.76C198.296 25.9333 197.576 26.9467 196.616 27.8C195.656 28.6533 194.483 29.32 193.096 29.8C191.71 30.2533 190.136 30.48 188.376 30.48Z" fill="#9D9BF2"/>
</svg>
